<svg width="212" height="58" viewBox="0 0 212 58" fill="none" xmlns="http://www.w3.org/2000/svg">
<path d="M20.2739 22.693C18.4502 22.0711 17.6361 21.6123 17.6361 20.5219C17.6361 19.4315 18.4551 18.823 19.774 18.823C21.1748 18.823 22.2774 19.3962 22.6856 19.6444L22.9118 19.7795L23.6378 17.5013L23.5009 17.4174C22.5671 16.8442 21.2151 16.5046 19.8828 16.5046C16.393 16.5046 14.8039 18.7341 14.8039 20.8054C14.8039 22.1271 15.486 23.9099 18.7301 24.8993C20.6382 25.5066 21.2812 26.0823 21.2812 27.1824C21.2812 28.2826 20.3302 29.0225 18.7387 29.0225C17.4943 29.0225 16.1204 28.5089 15.3087 28.0026L15.0826 27.859L14.3565 30.2054L14.4983 30.2881C15.6559 30.9575 17.1716 31.3396 18.6543 31.3396C21.973 31.3396 24.1158 29.6297 24.1158 26.9792C24.1158 24.8507 22.9656 23.568 20.2752 22.6917L20.2739 22.693Z" fill="#4D4D4F"/>
<path d="M88.5753 22.693C86.7516 22.0711 85.9399 21.6123 85.9399 20.5219C85.9399 19.4315 86.7564 18.823 88.0754 18.823C89.4737 18.823 90.58 19.3962 90.987 19.6444L91.2132 19.7795L91.9392 17.5013L91.8023 17.4174C90.8684 16.8442 89.5141 16.5046 88.1817 16.5046C84.6943 16.5046 83.1053 18.7341 83.1053 20.8054C83.1053 22.1271 83.7861 23.9099 87.0315 24.8993C88.9396 25.5066 89.5813 26.0823 89.5813 27.1824C89.5813 28.2826 88.634 29.0225 87.0413 29.0225C85.7981 29.0225 84.4254 28.5089 83.6138 28.0026L83.3864 27.859L82.6603 30.2054L82.8021 30.2881C83.9597 30.9575 85.4754 31.3396 86.9594 31.3396C90.2768 31.3396 92.4184 29.6297 92.4184 26.9792C92.4184 24.8507 91.2669 23.568 88.5765 22.6917L88.5753 22.693Z" fill="#4D4D4F"/>
<path d="M97.7503 16.6628H95.4046V30.9988H98.2942V17.2032C98.2942 16.905 98.0534 16.6641 97.7503 16.6641V16.6628Z" fill="#4D4D4F"/>
<path d="M74.4975 16.5071C72.2141 16.5071 70.6116 17.7277 69.7975 18.9349L69.7095 17.32C69.69 17.0425 69.4614 16.821 69.1729 16.821H67.0619L67.0803 17.0413C67.1512 18.1123 67.1866 19.2733 67.1866 20.8091V31.0013H70.0738V22.6321C70.0738 22.2816 70.1422 21.8837 70.2535 21.5636C70.7094 20.2992 71.9415 19.0262 73.6785 19.0262C76.507 19.0262 76.9287 21.6269 76.9287 23.1725V31.0025H79.8184V22.9461C79.8184 18.1962 76.9507 16.5107 74.4963 16.5107L74.4975 16.5071Z" fill="#4D4D4F"/>
<path d="M50.6787 16.5971C50.4049 16.5338 50.169 16.5071 49.8976 16.5071C48.2805 16.5071 46.8246 17.5159 46.0277 19.1382L45.9763 17.3261C45.9592 17.0462 45.7258 16.8198 45.4373 16.8198H43.3642L43.3776 17.0352C43.4546 18.3082 43.4864 19.659 43.4864 21.5502V30.9988H46.376V23.5388C46.376 23.1165 46.4139 22.7283 46.4799 22.4374C46.8295 20.5073 48.0666 19.3073 49.7082 19.3073C50.0553 19.3073 50.3181 19.3317 50.5907 19.3889L50.8389 19.4412V16.6348L50.6799 16.5971H50.6787Z" fill="#4D4D4F"/>
<path d="M39.6543 30.7786C39.5785 29.7746 39.5455 28.5758 39.5455 27.0096V16.8198H36.6559V25.2462C36.6559 25.7464 36.53 26.1954 36.4298 26.4693C35.9494 27.5451 34.7723 28.7961 33.0243 28.7961C30.9402 28.7961 29.8841 27.3163 29.8841 24.3943V16.8198H26.9944V24.8507C26.9944 30.7092 30.6211 31.3408 32.1833 31.3408C34.8053 31.3408 36.255 29.8707 36.9322 28.8801L37.0177 30.4622H37.0202C37.0202 30.7603 37.2634 31.0001 37.5604 31.0001H39.6714L39.6531 30.7798L39.6543 30.7786Z" fill="#4D4D4F"/>
<path d="M11.7847 30.7603C11.6405 29.9048 11.5708 28.8168 11.5708 27.4355V22.5688C11.5708 19.8014 10.5953 16.5058 5.95041 16.5058C4.12911 16.5058 2.38725 16.9817 1.04633 17.8482L0.911875 17.9334L1.65506 20.0533L1.87631 19.8939C2.83952 19.2136 4.26234 18.7925 5.59837 18.7925H5.65093C8.28877 18.7925 8.68237 20.6606 8.68237 21.7754V21.7973H8.63959C3.07177 21.7985 0 23.7067 0 27.1836C0 29.25 1.55728 31.3408 4.5337 31.3408C6.55792 31.3408 8.09442 30.3867 8.94884 29.3973L9.09186 30.5948C9.15053 30.8273 9.35833 31.0001 9.6138 31.0001H11.8263L11.7859 30.7615L11.7847 30.7603ZM8.73615 26.0445C8.73615 26.3366 8.69826 26.5703 8.61392 26.7638C8.20443 27.8079 7.06275 29.0225 5.18644 29.0225C4.10221 29.0225 2.9422 28.4493 2.9422 26.8392C2.9422 24.9541 4.76962 23.9927 8.37434 23.9927C8.49168 23.9927 8.61269 23.9951 8.73493 23.9951V26.0445H8.73615Z" fill="#4D4D4F"/>
<path d="M63.6234 30.7603C63.4792 29.9048 63.4083 28.8168 63.4083 27.4355V22.5688C63.4083 19.8014 62.4353 16.5058 57.7879 16.5058C55.9666 16.5058 54.2272 16.9817 52.8863 17.8482L52.7494 17.9334L53.4901 20.0533L53.7138 19.8939C54.6746 19.2136 56.0986 18.7925 57.4359 18.7925H57.4897C60.1275 18.7925 60.5187 20.6606 60.5187 21.7754V21.7973H60.4808C54.9068 21.7973 51.8375 23.7055 51.8375 27.1812C51.8375 29.2476 53.396 31.3384 56.3737 31.3384C58.3967 31.3384 59.9344 30.3843 60.7864 29.3949L60.9318 30.6009C60.9942 30.8285 61.1995 30.9964 61.4513 30.9964H63.6662L63.6247 30.7579L63.6234 30.7603ZM60.5737 26.0445C60.5737 26.3366 60.5333 26.5703 60.4514 26.7638C60.0419 27.8079 58.9003 29.0225 57.024 29.0225C55.9397 29.0225 54.7809 28.4493 54.7809 26.8392C54.7809 24.9541 56.6083 23.9927 60.2106 23.9927C60.3353 23.9927 60.4539 23.9951 60.5737 23.9951V26.0445Z" fill="#4D4D4F"/>
<path d="M98.4751 12.8427C98.4751 13.7616 97.831 14.493 96.7565 14.493C95.7737 14.493 95.1296 13.7616 95.1296 12.8427C95.1296 11.9239 95.8043 11.1621 96.8201 11.1621C97.8359 11.1621 98.4751 11.8959 98.4751 12.8427Z" fill="#4D4D4F"/>
<path d="M162.237 8.89608C162.218 8.86565 162.201 8.83158 162.188 8.79628C161.519 7.02923 160.497 7.12172 159.593 7.12172H157.616L157.619 7.11564H154.543V9.0981C155.693 9.0981 156.435 9.82341 155.775 11.33C155.775 11.3325 155.774 11.3349 155.772 11.3386L147.287 30.7615H152.359L154.47 25.4348H164.349L166.531 30.7615H171.695L162.238 8.89729L162.237 8.89608ZM156.036 21.5101L159.424 12.7612L162.749 21.5101H156.036Z" fill="#005E9E"/>
<path d="M209.808 14.7887H206.285V30.7615H210.622V15.6004C210.622 15.1513 210.258 14.7899 209.808 14.7899V14.7887Z" fill="#005E9E"/>
<path d="M179.886 20.8602C178.258 20.5036 176.975 20.2237 176.975 19.2343C176.975 18.0575 178.362 17.7472 179.094 17.7472C180.16 17.7472 180.994 18.1013 181.683 18.8424C181.985 19.1479 182.48 19.1686 182.805 18.8777V18.8802L185.095 16.8296L184.991 16.6884C183.83 15.1161 181.716 14.2118 179.196 14.2118C175.929 14.2118 172.634 15.8462 172.634 19.4972C172.634 23.1481 175.499 23.7383 178.027 24.2896C179.793 24.673 181.182 24.9748 181.182 26.2015C181.182 27.4282 179.678 27.8189 178.73 27.8189C177.368 27.8189 176.432 27.2615 175.537 26.3877C175.236 26.0664 174.729 26.0482 174.4 26.339L172.06 28.5247L172.184 28.661C173.689 30.3405 175.753 31.1546 178.5 31.1546C181.739 31.1546 185.522 29.7807 185.522 25.907C185.522 22.0334 182.262 21.3811 179.884 20.8614L179.886 20.8602Z" fill="#005E9E"/>
<path d="M203.558 22.9802C203.558 17.5731 200.639 14.2118 195.944 14.2118C190.843 14.2118 187.14 17.7764 187.14 22.6844C187.14 27.5925 190.843 31.1534 195.944 31.1534C198.67 31.1534 200.92 30.119 202.646 28.0915H202.618L200.017 26.1309C199.685 25.9277 199.247 25.9873 198.981 26.2855L198.973 26.2794C197.993 27.1873 196.885 27.6254 195.548 27.6254C193.484 27.6254 191.95 26.4206 191.547 24.4795L191.499 24.2544H203.558V22.9802ZM191.503 20.9186L191.552 20.6935C191.969 18.6952 193.366 17.5464 195.384 17.5464C197.58 17.5464 199.009 18.7317 199.199 20.7105L199.219 20.9174H191.503V20.9186Z" fill="#005E9E"/>
<path d="M205.965 10.2189C205.965 9.53134 206.212 8.94354 206.701 8.45675C207.187 7.97239 207.78 7.72534 208.468 7.72534C209.157 7.72534 209.75 7.97239 210.238 8.45675C210.727 8.94354 210.973 9.53134 210.973 10.2189C210.973 10.9065 210.727 11.4919 210.238 11.9811C209.75 12.4679 209.16 12.7125 208.468 12.7125C207.777 12.7125 207.187 12.4679 206.701 11.9811C206.212 11.4919 205.965 10.9065 205.965 10.2189Z" fill="#005E9E"/>
<path d="M105.238 16.6738C101.727 18.5625 103.013 22.138 105.204 23.4463L106.687 24.2933C104.531 23.0179 109.178 20.8273 110.485 20.0765C115.397 17.2543 119.418 14.9359 119.418 14.9359V8.51638L105.237 16.6726L105.238 16.6738Z" fill="#ED1B34"/>
<path d="M119.419 31.6171V38.2691C119.419 39.5591 120.918 40.8272 122.471 39.7416C122.859 39.4715 142.623 25.5736 143.772 24.7375C147.565 21.975 147.984 17.6839 142.052 14.1765C142.444 14.6171 141.416 15.7185 140.242 16.7553C138.845 17.9881 136.507 19.5739 136.132 19.8452C135.849 20.046 123.306 28.8886 119.419 31.6183V31.6171Z" fill="#ED1B34"/>
<path d="M142.052 14.1765C142.444 14.6171 141.416 15.7185 140.242 16.7553C138.845 17.9881 136.507 19.5739 136.132 19.8452L119.419 8.5176V1.88263C119.419 0.593846 120.918 -0.674246 122.471 0.410082C125.655 2.63472 132.072 7.15823 136.714 10.4234C139.574 12.4351 141.754 13.9672 142.053 14.1753L142.052 14.1765Z" fill="#005E9E"/>
<path d="M110.493 20.0582C115.406 22.8792 119.419 25.1975 119.419 25.1975V31.6159L106.688 24.2921C104.532 23.0167 109.187 20.8079 110.493 20.057V20.0582Z" fill="#005E9E"/>
<path d="M1.86042 49.8316V55.9834H1.06345V49.8316H1.86042Z" fill="#4D4D4F"/>
<path d="M6.42591 52.7609C6.42591 52.3045 6.41735 51.9297 6.38924 51.5646H7.10431L7.15076 52.2948H7.1691C7.38912 51.8749 7.90251 51.4648 8.63592 51.4648C9.24954 51.4648 10.203 51.8299 10.203 53.345V55.9822H9.39622V53.4363C9.39622 52.7244 9.13097 52.1317 8.36945 52.1317C7.83772 52.1317 7.42579 52.5053 7.28766 52.9531C7.25099 53.0542 7.23266 53.1905 7.23266 53.328V55.9834H6.42591V52.7609Z" fill="#4D4D4F"/>
<path d="M18.4539 49.503V54.8419C18.4539 55.235 18.4624 55.6816 18.4905 55.9834H17.7669L17.7302 55.2167H17.7119C17.465 55.7096 16.9235 56.0832 16.1998 56.0832C15.1278 56.0832 14.3027 55.1802 14.3027 53.8379C14.293 52.3678 15.2097 51.4648 16.2915 51.4648C16.9699 51.4648 17.4283 51.7836 17.63 52.1402H17.6483V49.503H18.4551H18.4539ZM17.6471 53.3633C17.6471 53.2635 17.6385 53.126 17.6104 53.0262C17.4906 52.515 17.0518 52.0952 16.4468 52.0952C15.6119 52.0952 15.1168 52.8254 15.1168 53.8014C15.1168 54.6959 15.5569 55.4346 16.4272 55.4346C16.9675 55.4346 17.4625 55.0792 17.6092 54.4768C17.6373 54.3673 17.6459 54.2578 17.6459 54.13V53.3633H17.6471Z" fill="#4D4D4F"/>
<path d="M26.9162 53.7381C26.9162 55.3713 25.7794 56.0832 24.7074 56.0832C23.5071 56.0832 22.5805 55.207 22.5805 53.8111C22.5805 52.3325 23.5523 51.466 24.7807 51.466C26.0092 51.466 26.9162 52.3873 26.9162 53.7381ZM23.3958 53.7843C23.3958 54.7518 23.9557 55.482 24.7429 55.482C25.53 55.482 26.0899 54.7616 26.0899 53.7661C26.0899 53.0176 25.7146 52.0684 24.7612 52.0684C23.8078 52.0684 23.3958 52.9446 23.3958 53.7843Z" fill="#4D4D4F"/>
<path d="M31.0416 52.7609C31.0416 52.3045 31.0331 51.9297 31.005 51.5646H31.72L31.7665 52.2948H31.7848C32.0048 51.8749 32.5182 51.4648 33.2516 51.4648C33.8653 51.4648 34.8187 51.8299 34.8187 53.345V55.9822H34.0119V53.4363C34.0119 52.7244 33.7455 52.1317 32.9852 52.1317C32.4534 52.1317 32.0415 52.5053 31.9034 52.9531C31.8667 53.0542 31.8484 53.1905 31.8484 53.328V55.9834H31.0416V52.7609Z" fill="#4D4D4F"/>
<path d="M39.6861 53.9206C39.7044 55.0062 40.4012 55.454 41.2079 55.454C41.7849 55.454 42.1333 55.353 42.4364 55.2253L42.5733 55.7997C42.2897 55.9274 41.8032 56.0735 41.0979 56.0735C39.7326 56.0735 38.916 55.179 38.916 53.8464C38.916 52.5138 39.7044 51.4648 40.9965 51.4648C42.445 51.4648 42.83 52.7329 42.83 53.5458C42.83 53.7101 42.8117 53.8379 42.8019 53.9206H39.6849H39.6861ZM42.0514 53.3462C42.0599 52.8351 41.8399 52.0416 40.9329 52.0416C40.1176 52.0416 39.7594 52.7901 39.6959 53.3462H42.0514Z" fill="#4D4D4F"/>
<path d="M46.8283 55.162C47.0667 55.3177 47.4884 55.4808 47.8918 55.4808C48.4785 55.4808 48.7535 55.1887 48.7535 54.8236C48.7535 54.4403 48.5237 54.2298 47.9284 54.0119C47.1315 53.7284 46.755 53.2915 46.755 52.7621C46.755 52.0502 47.3331 51.466 48.2854 51.466C48.734 51.466 49.1288 51.5938 49.3757 51.7398L49.174 52.324C49.0004 52.2144 48.679 52.0684 48.267 52.0684C47.7903 52.0684 47.5251 52.3422 47.5251 52.6708C47.5251 53.0359 47.7915 53.2002 48.3685 53.4193C49.1386 53.7113 49.5322 54.0947 49.5322 54.7518C49.5322 55.5283 48.9271 56.0759 47.8734 56.0759C47.3869 56.0759 46.9383 55.9579 46.6266 55.7753L46.8283 55.1632V55.162Z" fill="#4D4D4F"/>
<path d="M54.5744 50.3245C54.5829 50.5983 54.3812 50.8173 54.061 50.8173C53.7774 50.8173 53.5757 50.5983 53.5757 50.3245C53.5757 50.0507 53.7859 49.8231 54.0793 49.8231C54.3727 49.8231 54.5744 50.0421 54.5744 50.3245ZM53.6759 55.9834V51.5658H54.4827V55.9834H53.6759Z" fill="#4D4D4F"/>
<path d="M61.3865 55.9834L61.3218 55.4261H61.2949C61.0467 55.7729 60.5712 56.0832 59.938 56.0832C59.0396 56.0832 58.5812 55.454 58.5812 54.8151C58.5812 53.7478 59.5347 53.1637 61.2484 53.1722V53.0809C61.2484 52.7158 61.147 52.0587 60.24 52.0587C59.8268 52.0587 59.3965 52.1865 59.0848 52.3873L58.9015 51.8579C59.2682 51.6206 59.7999 51.466 60.3585 51.466C61.7153 51.466 62.0454 52.3873 62.0454 53.2732V54.9259C62.0454 55.3092 62.0637 55.6828 62.1187 55.9846H61.3853L61.3865 55.9834ZM61.2667 53.7296C60.3867 53.7113 59.388 53.8659 59.388 54.7239C59.388 55.2435 59.7364 55.4906 60.1483 55.4906C60.7252 55.4906 61.0919 55.1255 61.2203 54.7506C61.2484 54.6691 61.2667 54.5778 61.2667 54.4951V53.7284V53.7296Z" fill="#4D4D4F"/>
<path d="M74.7334 53.0992H72.3315V55.3165H75.0084V55.9822H71.5345V49.8304H74.8715V50.4961H72.3327V52.4396H74.7346V53.0967L74.7334 53.0992Z" fill="#4D4D4F"/>
<path d="M79.5006 51.5658L80.1325 52.515C80.2975 52.7621 80.4344 52.9897 80.5811 53.2355H80.608C80.7547 52.9714 80.9014 52.7426 81.0481 52.5053L81.6715 51.5658H82.5418L81.0297 53.7016L82.5882 55.9834H81.6715L81.02 54.9892C80.8464 54.7336 80.6997 54.4878 80.5432 54.2225H80.5249C80.3782 54.4865 80.223 54.7239 80.0567 54.9892L79.415 55.9834H78.5251L80.102 53.7296L78.5985 51.567H79.4969L79.5006 51.5658Z" fill="#4D4D4F"/>
<path d="M86.4777 53.0079C86.4777 52.442 86.4594 51.9856 86.4411 51.5658H87.1647L87.2014 52.3228H87.2197C87.5498 51.7849 88.0717 51.4648 88.7966 51.4648C89.8686 51.4648 90.6753 52.3678 90.6753 53.7101C90.6753 55.2983 89.7035 56.0832 88.6584 56.0832C88.0717 56.0832 87.5583 55.8277 87.2931 55.3895H87.2747V57.7894H86.4765V53.0067L86.4777 53.0079ZM87.2759 54.1847C87.2759 54.3028 87.2943 54.4135 87.3126 54.5133C87.4593 55.0695 87.9446 55.4528 88.5228 55.4528C89.3747 55.4528 89.8698 54.7591 89.8698 53.7466C89.8698 52.8607 89.4016 52.1037 88.5496 52.1037C87.9996 52.1037 87.4862 52.4968 87.331 53.098C87.3041 53.199 87.2759 53.317 87.2759 53.4266V54.1847Z" fill="#4D4D4F"/>
<path d="M98.8174 53.7381C98.8174 55.3713 97.6806 56.0832 96.6086 56.0832C95.4083 56.0832 94.4817 55.207 94.4817 53.8111C94.4817 52.3325 95.4535 51.466 96.6819 51.466C97.9104 51.466 98.8174 52.3873 98.8174 53.7381ZM95.297 53.7843C95.297 54.7518 95.8569 55.482 96.6441 55.482C97.4312 55.482 97.9911 54.7616 97.9911 53.7661C97.9911 53.0176 97.6158 52.0684 96.6624 52.0684C95.7089 52.0684 95.297 52.9446 95.297 53.7843Z" fill="#4D4D4F"/>
<path d="M102.943 52.9434C102.943 52.4226 102.933 51.9759 102.906 51.5646H103.611L103.64 52.4311H103.676C103.878 51.8372 104.363 51.4636 104.905 51.4636C104.996 51.4636 105.06 51.4721 105.135 51.4903V52.2473C105.051 52.229 104.969 52.2205 104.859 52.2205C104.291 52.2205 103.888 52.6489 103.778 53.2513C103.759 53.3608 103.741 53.4886 103.741 53.6249V55.9798H102.944V52.941L102.943 52.9434Z" fill="#4D4D4F"/>
<path d="M110.24 50.2965V51.5646H111.395V52.1767H110.24V54.5583C110.24 55.106 110.396 55.4163 110.845 55.4163C111.057 55.4163 111.212 55.3883 111.313 55.3616L111.35 55.964C111.195 56.0285 110.947 56.0735 110.635 56.0735C110.259 56.0735 109.957 55.9554 109.765 55.7352C109.535 55.4979 109.453 55.106 109.453 54.5851V52.1755H108.766V51.5634H109.453V50.5046L110.241 50.2953L110.24 50.2965Z" fill="#4D4D4F"/>
<path d="M124.807 55.7826C124.514 55.9287 123.927 56.0747 123.175 56.0747C121.433 56.0747 120.123 54.9794 120.123 52.9629C120.123 50.9464 121.433 49.7318 123.35 49.7318C124.12 49.7318 124.605 49.8961 124.817 50.0056L124.624 50.6543C124.322 50.5082 123.89 50.3987 123.377 50.3987C121.928 50.3987 120.966 51.3212 120.966 52.9361C120.966 54.4415 121.837 55.409 123.34 55.409C123.827 55.409 124.322 55.308 124.642 55.1535L124.807 55.7826Z" fill="#4D4D4F"/>
<path d="M128.859 52.9434C128.859 52.4226 128.849 51.9759 128.822 51.5646H129.528L129.556 52.4311H129.593C129.794 51.8372 130.279 51.4636 130.821 51.4636C130.913 51.4636 130.976 51.4721 131.051 51.4903V52.2473C130.968 52.229 130.886 52.2205 130.776 52.2205C130.207 52.2205 129.804 52.6489 129.694 53.2513C129.676 53.3608 129.657 53.4886 129.657 53.6249V55.9798H128.859V52.941V52.9434Z" fill="#4D4D4F"/>
<path d="M135.322 53.9206C135.34 55.0062 136.037 55.454 136.844 55.454C137.421 55.454 137.769 55.353 138.072 55.2253L138.209 55.7997C137.925 55.9274 137.439 56.0735 136.734 56.0735C135.368 56.0735 134.552 55.179 134.552 53.8464C134.552 52.5138 135.34 51.4648 136.632 51.4648C138.081 51.4648 138.466 52.7329 138.466 53.5458C138.466 53.7101 138.447 53.8379 138.438 53.9206H135.32H135.322ZM137.687 53.3462C137.697 52.8351 137.475 52.0416 136.569 52.0416C135.753 52.0416 135.395 52.7901 135.331 53.3462H137.687Z" fill="#4D4D4F"/>
<path d="M146.406 49.503V54.8419C146.406 55.235 146.416 55.6816 146.443 55.9834H145.719L145.682 55.2167H145.664C145.416 55.7096 144.876 56.0832 144.151 56.0832C143.079 56.0832 142.254 55.1802 142.254 53.8379C142.244 52.3678 143.161 51.4648 144.242 51.4648C144.921 51.4648 145.379 51.7836 145.581 52.1402H145.599V49.503H146.406ZM145.599 53.3633C145.599 53.2635 145.589 53.126 145.563 53.0262C145.444 52.515 145.003 52.0952 144.399 52.0952C143.564 52.0952 143.069 52.8254 143.069 53.8014C143.069 54.6959 143.509 55.4346 144.379 55.4346C144.92 55.4346 145.415 55.0792 145.561 54.4768C145.588 54.3673 145.598 54.2578 145.598 54.13V53.3633H145.599Z" fill="#4D4D4F"/>
<path d="M151.75 50.3245C151.76 50.5983 151.558 50.8173 151.237 50.8173C150.952 50.8173 150.75 50.5983 150.75 50.3245C150.75 50.0507 150.962 49.8231 151.254 49.8231C151.546 49.8231 151.749 50.0421 151.749 50.3245H151.75ZM150.852 55.9834V51.5658H151.658V55.9834H150.852Z" fill="#4D4D4F"/>
<path d="M157.077 50.2965V51.5646H158.232V52.1767H157.077V54.5583C157.077 55.106 157.232 55.4163 157.682 55.4163C157.894 55.4163 158.049 55.3883 158.15 55.3616L158.187 55.964C158.032 56.0285 157.784 56.0735 157.472 56.0735C157.095 56.0735 156.794 55.9554 156.602 55.7352C156.372 55.4979 156.29 55.106 156.29 54.5851V52.1755H155.603V51.5634H156.29V50.5046L157.078 50.2953L157.077 50.2965Z" fill="#4D4D4F"/>
<path d="M168.325 54.0484L167.684 55.9834H166.858L168.957 49.8316H169.92L172.029 55.9834H171.177L170.517 54.0484H168.325ZM170.352 53.4278L169.747 51.6571C169.61 51.2555 169.517 50.8904 169.427 50.535H169.408C169.317 50.9001 169.216 51.2749 169.097 51.6485L168.491 53.4278H170.352Z" fill="#4D4D4F"/>
<path d="M179.73 51.5658C179.711 51.8846 179.693 52.2412 179.693 52.7791V55.3433C179.693 56.357 179.491 56.9765 179.061 57.3598C178.631 57.7614 178.007 57.8892 177.448 57.8892C176.888 57.8892 176.329 57.7614 175.972 57.5241L176.174 56.912C176.467 57.0945 176.926 57.2588 177.476 57.2588C178.301 57.2588 178.906 56.8292 178.906 55.7169V55.224H178.888C178.641 55.6354 178.164 55.9627 177.476 55.9627C176.376 55.9627 175.587 55.0317 175.587 53.8087C175.587 52.3118 176.569 51.4636 177.586 51.4636C178.356 51.4636 178.778 51.8652 178.969 52.2303H178.988L179.024 51.5646H179.73V51.5658ZM178.896 53.3097C178.896 53.1734 178.886 53.0542 178.85 52.9446C178.703 52.4785 178.309 52.0964 177.723 52.0964C176.953 52.0964 176.403 52.7438 176.403 53.7661C176.403 54.6326 176.843 55.3543 177.713 55.3543C178.208 55.3543 178.657 55.0439 178.831 54.5328C178.878 54.3965 178.896 54.2407 178.896 54.1044V53.3097Z" fill="#4D4D4F"/>
<path d="M184.589 53.9206C184.607 55.0062 185.304 55.454 186.11 55.454C186.687 55.454 187.036 55.353 187.339 55.2253L187.476 55.7997C187.192 55.9274 186.706 56.0735 186 56.0735C184.635 56.0735 183.819 55.179 183.819 53.8464C183.819 52.5138 184.607 51.4648 185.899 51.4648C187.347 51.4648 187.733 52.7329 187.733 53.5458C187.733 53.7101 187.714 53.8379 187.704 53.9206H184.587H184.589ZM186.954 53.3462C186.964 52.8351 186.742 52.0416 185.835 52.0416C185.02 52.0416 184.662 52.7901 184.598 53.3462H186.954Z" fill="#4D4D4F"/>
<path d="M191.841 52.7609C191.841 52.3045 191.831 51.9297 191.804 51.5646H192.519L192.566 52.2948H192.584C192.804 51.8749 193.317 51.4648 194.051 51.4648C194.666 51.4648 195.618 51.8299 195.618 53.345V55.9822H194.811V53.4363C194.811 52.7244 194.546 52.1317 193.784 52.1317C193.253 52.1317 192.841 52.5053 192.703 52.9531C192.666 53.0542 192.648 53.1905 192.648 53.328V55.9834H191.841V52.7609Z" fill="#4D4D4F"/>
<path d="M203.199 55.8191C202.989 55.9287 202.521 56.0747 201.925 56.0747C200.587 56.0747 199.716 55.1717 199.716 53.8209C199.716 52.47 200.652 51.4757 202.1 51.4757C202.577 51.4757 202.998 51.595 203.219 51.7045L203.035 52.3252C202.842 52.2157 202.54 52.1159 202.1 52.1159C201.083 52.1159 200.533 52.8643 200.533 53.7856C200.533 54.8078 201.193 55.437 202.073 55.437C202.532 55.437 202.833 55.319 203.063 55.218L203.2 55.8204L203.199 55.8191Z" fill="#4D4D4F"/>
<path d="M207.709 51.5658L208.681 54.1762C208.783 54.4683 208.891 54.8151 208.966 55.0792H208.984C209.067 54.8151 209.159 54.4768 209.269 54.158L210.149 51.5658H211.001L209.791 54.7141C209.213 56.2293 208.819 57.0045 208.269 57.4791C207.876 57.8259 207.481 57.9622 207.279 57.9987L207.077 57.3233C207.279 57.26 207.544 57.131 207.783 56.9315C208.003 56.7586 208.278 56.4483 208.461 56.037C208.498 55.9554 208.526 55.8909 208.526 55.8447C208.526 55.7985 208.508 55.7352 208.471 55.6354L206.831 51.5646H207.711L207.709 51.5658Z" fill="#4D4D4F"/>
</svg>
